<svg width="132" height="111" fill="none" xmlns="http://www.w3.org/2000/svg"><path d="M94.488 0C74.063 0 57.422 16.495 57.422 36.782c0 10.91-8.945 19.769-19.922 19.769-10.976 0-19.922-8.877-19.922-19.769 0-10.892 8.946-19.769 19.922-19.769 4.734 0 8.572-3.81 8.572-8.506C46.072 3.81 42.234 0 37.5 0 17.057 0 .434 16.495.434 36.782c0 20.287 16.623 36.782 37.066 36.782 20.444 0 37.067-16.495 37.067-36.782 0-10.91 8.945-19.769 19.921-19.769 10.977 0 19.922 8.877 19.922 19.769 0 10.892-8.945 19.769-19.922 19.769-4.733 0-8.572 3.81-8.572 8.506 0 4.697 3.839 8.507 8.572 8.507 20.444 0 37.067-16.495 37.067-36.782C131.555 16.496 114.932 0 94.488 0ZM10.719 100.452c0-.814-.317-1.48-.932-2.035-.615-.554-1.714-.998-3.28-1.386-1.9-.444-3.373-1.11-4.435-1.98-1.062-.868-1.603-1.978-1.603-3.29 0-1.388.578-2.553 1.715-3.478 1.136-.924 2.627-1.386 4.454-1.386 1.956 0 3.522.536 4.696 1.608 1.155 1.073 1.714 2.312 1.677 3.717l-.019.074h-2.31c0-1.035-.355-1.886-1.044-2.533-.69-.647-1.696-.962-2.982-.962-1.211 0-2.143.278-2.777.814-.652.536-.969 1.239-.969 2.127 0 .776.354 1.423 1.044 1.941.69.518 1.826.98 3.41 1.369 1.883.462 3.336 1.146 4.324 2.052.987.907 1.472 2.016 1.472 3.366 0 1.443-.596 2.589-1.77 3.458-1.193.869-2.721 1.313-4.64 1.313-1.79 0-3.374-.481-4.753-1.442-1.379-.962-2.05-2.256-1.994-3.865l.019-.074h2.31c0 1.146.43 2.016 1.268 2.607.839.592 1.9.888 3.15.888 1.23 0 2.198-.259 2.907-.758.708-.573 1.062-1.276 1.062-2.145ZM29.486 98.825c0 1.905-.466 3.44-1.38 4.605-.912 1.165-2.198 1.756-3.8 1.756-.82 0-1.548-.129-2.163-.406a4.25 4.25 0 0 1-1.584-1.221v6.454h-2.422v-18.29H20l.392 1.702c.428-.629.969-1.128 1.621-1.46.652-.334 1.398-.5 2.273-.5 1.66 0 2.945.647 3.858 1.942.913 1.294 1.38 3.014 1.38 5.14v.278h-.038Zm-2.423-.259c0-1.498-.298-2.718-.894-3.698-.597-.962-1.473-1.443-2.628-1.443-.69 0-1.286.148-1.789.462a3.35 3.35 0 0 0-1.193 1.295v6.38c.299.536.708.961 1.193 1.276.485.314 1.1.462 1.808.462 1.155 0 2.012-.425 2.609-1.257.596-.833.894-1.905.894-3.218v-.259ZM39.903 105.186c-1.863 0-3.335-.611-4.435-1.831-1.1-1.221-1.64-2.811-1.64-4.771v-.537c0-1.886.56-3.44 1.696-4.697 1.137-1.257 2.46-1.868 4.007-1.868 1.807 0 3.168.537 4.08 1.61.914 1.072 1.38 2.514 1.38 4.29v1.497h-8.647l-.037.056c.018 1.276.354 2.312.969 3.125.615.814 1.49 1.221 2.627 1.221.82 0 1.547-.111 2.162-.352.615-.24 1.156-.554 1.603-.961l.95 1.572c-.484.462-1.1.85-1.882 1.165-.783.333-1.714.481-2.833.481Zm-.372-11.817c-.82 0-1.51.332-2.087 1.017-.578.684-.932 1.535-1.063 2.552l.019.055h6.15v-.314c0-.943-.261-1.72-.764-2.367-.485-.629-1.249-.943-2.255-.943ZM55.145 105.186c-1.863 0-3.335-.611-4.435-1.831-1.1-1.221-1.64-2.811-1.64-4.771v-.537c0-1.886.56-3.44 1.696-4.697 1.137-1.257 2.46-1.868 4.007-1.868 1.807 0 3.168.537 4.081 1.61.913 1.072 1.38 2.514 1.38 4.29v1.497h-8.648l-.037.056c.019 1.276.354 2.312.969 3.125.633.814 1.49 1.221 2.627 1.221.82 0 1.547-.111 2.162-.352.615-.24 1.156-.554 1.603-.961l.95 1.572c-.484.462-1.1.85-1.882 1.165-.782.333-1.714.481-2.833.481Zm-.372-11.817c-.82 0-1.51.332-2.087 1.017-.578.684-.932 1.535-1.063 2.552l.019.055h6.15v-.314c0-.943-.261-1.72-.764-2.367-.485-.629-1.249-.943-2.255-.943ZM64.297 98.566c0-2.127.466-3.847 1.379-5.141.913-1.295 2.199-1.96 3.858-1.96.782 0 1.472.148 2.068.425a4.324 4.324 0 0 1 1.547 1.239v-7.268h2.422v19.048h-1.975l-.28-1.628a4.293 4.293 0 0 1-1.602 1.406c-.634.314-1.36.481-2.2.481-1.62 0-2.906-.592-3.82-1.757-.913-1.165-1.379-2.7-1.379-4.605v-.24h-.018Zm2.441.259c0 1.331.28 2.404.82 3.199.56.795 1.398 1.202 2.572 1.202.727 0 1.323-.166 1.826-.481a3.804 3.804 0 0 0 1.212-1.368V95.2c-.317-.555-.709-.98-1.212-1.294-.503-.315-1.1-.481-1.789-.481-1.174 0-2.031.48-2.59 1.424-.56.961-.839 2.182-.839 3.717v.259ZM91.336 100.452c0-.814-.317-1.48-.932-2.035-.615-.554-1.714-.998-3.28-1.386-1.9-.444-3.373-1.11-4.435-1.98-1.062-.868-1.603-1.978-1.603-3.29 0-1.388.578-2.553 1.715-3.478 1.155-.924 2.627-1.386 4.454-1.386 1.957 0 3.522.536 4.696 1.608 1.155 1.073 1.715 2.312 1.677 3.717l-.019.074H91.3c0-1.035-.354-1.886-1.044-2.533-.69-.647-1.696-.962-2.982-.962-1.21 0-2.143.278-2.776.814-.653.536-.97 1.239-.97 2.127 0 .776.355 1.423 1.044 1.941.69.518 1.826.98 3.41 1.369 1.883.462 3.336 1.146 4.324 2.052.988.907 1.472 2.016 1.472 3.366 0 1.443-.596 2.589-1.77 3.458-1.193.869-2.721 1.313-4.64 1.313-1.79 0-3.374-.481-4.753-1.442-1.379-.962-2.05-2.256-1.994-3.865l.019-.074h2.31c0 1.146.43 2.016 1.268 2.607.839.592 1.901.888 3.15.888 1.23 0 2.199-.259 2.907-.758.708-.5 1.062-1.276 1.062-2.145ZM101.364 104.926h-2.423V91.723h2.423v13.203Z" fill="#000"/><rect x="98.898" y="85.85" width="2.5" height="2.5" rx="1.25" fill="#000"/><path d="M109.282 103.04h7.697v1.886h-10.604v-1.701l7.212-9.616h-7.119v-1.886h10.101v1.627l-7.287 9.69ZM126.911 105.186c-1.863 0-3.336-.611-4.435-1.831-1.1-1.221-1.64-2.811-1.64-4.771v-.537c0-1.886.559-3.44 1.696-4.697 1.137-1.257 2.46-1.868 4.006-1.868 1.808 0 3.169.537 4.082 1.61.913 1.072 1.379 2.514 1.379 4.29v1.497h-8.647l-.038.056c.019 1.276.355 2.312.97 3.125.633.814 1.49 1.221 2.627 1.221.82 0 1.547-.111 2.162-.352.615-.24 1.155-.554 1.603-.961l.95 1.572c-.484.462-1.099.85-1.882 1.165-.783.333-1.715.481-2.833.481Zm-.373-11.817c-.819 0-1.509.332-2.087 1.017-.577.684-.932 1.535-1.062 2.552l.019.055h6.149v-.314c0-.943-.26-1.72-.764-2.367-.484-.629-1.248-.943-2.255-.943Z" fill="#000"/></svg>